# xmcd
#
# Track frame offsets:
#	150
#	10636
#	20369
#	30110
#	39632
#	50847
#	63927
#	73886
#	89111
#	99352
#	110539
#	121011
#	130821
#	142324
#	152089
#	163386
#	174109
#	183533
#	194062
#	205666
#	216363
#	228287
#	238361
#	250651
#	262786
#
# Disc length: 3694 seconds
#
# Revision: 0
# Processed by: cddbd v1.4PL0 Copyright (c) Steve Scherf et al.
# Submitted via: EasyCDDAExtractor 4.6.9.1
#
DISCID=640e6c19
DTITLE="Little" Jimmy Dickens - Out Behind The Barn - Disc 1
DYEAR=2001
DGENRE=Country
TTITLE0=Making The Rounds-1957
TTITLE1=I Never Had The Blues-1957
TTITLE2=Happy Heartaches-1957
TTITLE3=Let's Quit Before We Start-1957
TTITLE4=Walbash Cannon Ball-1957
TTITLE5=I Can't Help It-1957
TTITLE6=Jambalaya-1957
TTITLE7=The Tramp On The Street-1957
TTITLE8=Family Reunion-1957
TTITLE9=Goodbye-1958
TTITLE10=Whatever You Were-1957
TTITLE11=Recipe For The Blues-1998
TTITLE12=(I Got) A Hole In My Pocket-1958
TTITLE13=Darling My Darling-1998
TTITLE14=Me And My Big Loud Mouth-1958
TTITLE15=Country Ways And City Ideas-1959
TTITLE16=Hannah-1959
TTITLE17=When Your House Is Not A Home-1959
TTITLE18=The Honeymoon Is Over-1959
TTITLE19=Hey Ma! (Hide The Daughter)-1959
TTITLE20=We Lived It Up (Now We've Got To Live It Down)-1960
TTITLE21=Hot Tears-1959
TTITLE22=I'm Just Blue Enough (To Do 'Most Anything)-1960
TTITLE23=We Could-1960
TTITLE24=Alone With God-1966
EXTD=
EXTT0=
EXTT1=
EXTT2=
EXTT3=
EXTT4=
EXTT5=
EXTT6=
EXTT7=
EXTT8=
EXTT9=
EXTT10=
EXTT11=
EXTT12=
EXTT13=
EXTT14=
EXTT15=
EXTT16=
EXTT17=
EXTT18=
EXTT19=
EXTT20=
EXTT21=
EXTT22=
EXTT23=
EXTT24=
PLAYORDER=
